<svg xmlns="http://www.w3.org/2000/svg" viewBox="0 0 61.66 48.18"><defs><style>.cls-1{fill:none;stroke:#ffb32a;stroke-miterlimit:10;}.cls-2{fill:#ffb32a;}</style></defs><g id="Layer_2" data-name="Layer 2"><g id="Layer_1-2" data-name="Layer 1"><rect class="cls-1" x="0.5" y="0.5" width="60.66" height="47.18" rx="10.71"/><path class="cls-2" d="M43.6,8.34A12.14,12.14,0,1,1,31.44,20.43,12.2,12.2,0,0,1,43.6,8.34Zm0,5.63a6.5,6.5,0,1,0,6.56,6.46A6.52,6.52,0,0,0,43.62,14Z"/><path class="cls-2" d="M30.17,20.46a12.14,12.14,0,1,1-12-12.12A12.11,12.11,0,0,1,30.17,20.46ZM18,27a6.51,6.51,0,1,0,0-13,6.51,6.51,0,1,0,0,13Z"/><path class="cls-2" d="M18.14,41.33A12.2,12.2,0,0,1,7.68,35.25c-.48-.78-.43-.92.39-1.33,1.14-.57,2.29-1.11,3.41-1.71.51-.27.78-.19,1.11.3a6.49,6.49,0,0,0,7.56,2.88,6,6,0,0,0,3.36-2.46.71.71,0,0,1,1.09-.26c1.2.65,2.42,1.27,3.66,1.85.51.25.56.49.27.95A12,12,0,0,1,18.14,41.33Z"/><path class="cls-2" d="M28.94,6.85A2.73,2.73,0,0,1,31.6,9.51a2.77,2.77,0,0,1-2.66,2.69,2.72,2.72,0,0,1-2.68-2.73A2.64,2.64,0,0,1,28.94,6.85Z"/></g></g></svg>